<svg width="172" height="34" viewBox="0 0 172 34" fill="none" xmlns="http://www.w3.org/2000/svg">
<rect width="34" height="34" rx="17" fill="white"/>
<g clip-path="url(#clip0_1_1028)">
<path d="M14.7867 24V17.4308H12.9998V15.0656H14.7867V13.0454C14.7867 11.4578 15.8422 10 18.2745 10C19.2592 10 19.9874 10.0918 19.9874 10.0918L19.93 12.3005C19.93 12.3005 19.1874 12.2935 18.377 12.2935C17.4999 12.2935 17.3594 12.6864 17.3594 13.3385V15.0656H19.9998L19.8849 17.4308H17.3594V24H14.7867Z" fill="#192031"/>
</g>
<rect x="46" width="34" height="34" rx="17" fill="white"/>
<g clip-path="url(#clip1_1_1028)">
<path d="M71.9998 11.7044C71.3258 11.9889 70.6108 12.1756 69.8788 12.2584C70.6413 11.823 71.2268 11.1335 71.5025 10.312C70.7776 10.7218 69.9845 11.0105 69.1575 11.1657C68.4838 10.482 67.5241 10.0547 66.4619 10.0547C64.4224 10.0547 62.7689 11.6299 62.7689 13.5728C62.7689 13.8486 62.8016 14.117 62.8645 14.3746C59.7954 14.2278 57.0743 12.8272 55.2529 10.6987C54.935 11.2183 54.7529 11.8227 54.7529 12.4674C54.7529 13.688 55.4049 14.7648 56.3958 15.3957C55.8093 15.3782 55.2358 15.2273 54.7231 14.9556C54.7228 14.9704 54.7228 14.9851 54.7228 14.9999C54.7228 16.7045 55.9958 18.1265 57.6851 18.4497C57.1413 18.5906 56.5709 18.6112 56.0174 18.5099C56.4873 19.9077 57.8512 20.9248 59.4671 20.9532C58.2032 21.8968 56.6109 22.4593 54.8808 22.4593C54.5826 22.4593 54.2887 22.4426 53.9998 22.4101C55.6341 23.4083 57.5752 23.9908 59.6607 23.9908C66.4534 23.9908 70.1678 18.6299 70.1678 13.9808C70.1678 13.8282 70.1642 13.6765 70.1571 13.5256C70.88 13.0277 71.5041 12.411 71.9998 11.7044Z" fill="#192031"/>
</g>
<rect x="92" width="34" height="34" rx="17" fill="white"/>
<g clip-path="url(#clip2_1_1028)">
<path d="M104.633 24V13.8795H101.203V24H104.633ZM102.918 12.4969C104.114 12.4969 104.859 11.7198 104.859 10.7486C104.837 9.75556 104.114 9 102.941 9C101.767 9 101 9.75558 101 10.7486C101 11.7198 101.745 12.4969 102.896 12.4969H102.918H102.918ZM106.531 24H109.962V18.3482C109.962 18.0458 109.984 17.7436 110.075 17.5274C110.323 16.923 110.887 16.2971 111.835 16.2971C113.076 16.2971 113.573 17.2252 113.573 18.5857V23.9999H117.003V18.1969C117.003 15.0883 115.31 13.6419 113.053 13.6419C111.203 13.6419 110.39 14.6563 109.939 15.3471H109.962V13.8793H106.532C106.577 14.829 106.532 23.9998 106.532 23.9998L106.531 24Z" fill="#192031"/>
</g>
<rect x="138" width="34" height="34" rx="17" fill="white"/>
<g clip-path="url(#clip3_1_1028)">
<path d="M155.003 12.9573C152.732 12.9573 150.9 14.7608 150.9 16.9968C150.9 19.2327 152.732 21.0362 155.003 21.0362C157.275 21.0362 159.107 19.2327 159.107 16.9968C159.107 14.7608 157.275 12.9573 155.003 12.9573ZM155.003 19.6229C153.536 19.6229 152.336 18.4452 152.336 16.9968C152.336 15.5483 153.532 14.3706 155.003 14.3706C156.475 14.3706 157.671 15.5483 157.671 16.9968C157.671 18.4452 156.471 19.6229 155.003 19.6229ZM160.232 12.7921C160.232 13.3159 159.803 13.7343 159.275 13.7343C158.743 13.7343 158.318 13.3124 158.318 12.7921C158.318 12.2718 158.746 11.8499 159.275 11.8499C159.803 11.8499 160.232 12.2718 160.232 12.7921ZM162.95 13.7483C162.889 12.4862 162.596 11.3683 161.657 10.4472C160.721 9.52607 159.586 9.23779 158.303 9.17451C156.982 9.10068 153.021 9.10068 151.7 9.17451C150.421 9.23428 149.286 9.52256 148.346 10.4437C147.407 11.3647 147.118 12.4827 147.053 13.7448C146.978 15.0456 146.978 18.9444 147.053 20.2452C147.114 21.5073 147.407 22.6253 148.346 23.5464C149.286 24.4675 150.418 24.7558 151.7 24.819C153.021 24.8929 156.982 24.8929 158.303 24.819C159.586 24.7593 160.721 24.471 161.657 23.5464C162.593 22.6253 162.886 21.5073 162.95 20.2452C163.025 18.9444 163.025 15.0491 162.95 13.7483ZM161.243 21.6409C160.964 22.33 160.425 22.8608 159.721 23.1386C158.668 23.5499 156.168 23.455 155.003 23.455C153.839 23.455 151.336 23.5464 150.286 23.1386C149.586 22.8643 149.046 22.3335 148.764 21.6409C148.346 20.6038 148.443 18.1429 148.443 16.9968C148.443 15.8507 148.35 13.3862 148.764 12.3526C149.043 11.6636 149.582 11.1327 150.286 10.855C151.339 10.4437 153.839 10.5386 155.003 10.5386C156.168 10.5386 158.671 10.4472 159.721 10.855C160.421 11.1292 160.961 11.6601 161.243 12.3526C161.661 13.3897 161.564 15.8507 161.564 16.9968C161.564 18.1429 161.661 20.6073 161.243 21.6409Z" fill="#192031"/>
</g>
<defs>
<clipPath id="clip0_1_1028">
<rect width="7" height="14" fill="white" transform="translate(12.9998 10)"/>
</clipPath>
<clipPath id="clip1_1_1028">
<rect width="18" height="14" fill="white" transform="translate(53.9998 10)"/>
</clipPath>
<clipPath id="clip2_1_1028">
<rect width="16" height="15" fill="white" transform="translate(101 9)"/>
</clipPath>
<clipPath id="clip3_1_1028">
<rect width="16" height="18" fill="white" transform="translate(147 8)"/>
</clipPath>
</defs>
</svg>
