<svg width="818" height="382" viewBox="0 0 818 382" fill="none" xmlns="http://www.w3.org/2000/svg">
<rect width="818" height="382" rx="30" fill="black" fill-opacity="0.2"/>
<path d="M161.696 199V163.24H167.36V178.984H183.92V163.24H189.536V199H183.92V184.024H167.36V199H161.696ZM227.282 199.576C224.69 199.576 222.274 199.112 220.034 198.184C217.826 197.256 215.874 195.96 214.178 194.296C212.514 192.632 211.202 190.68 210.242 188.44C209.314 186.2 208.85 183.752 208.85 181.096C208.85 178.44 209.314 175.992 210.242 173.752C211.202 171.48 212.514 169.528 214.178 167.896C215.842 166.232 217.794 164.952 220.034 164.056C222.274 163.128 224.69 162.664 227.282 162.664C229.906 162.664 232.322 163.128 234.53 164.056C236.77 164.952 238.722 166.232 240.386 167.896C242.082 169.56 243.394 171.512 244.322 173.752C245.25 175.992 245.714 178.44 245.714 181.096C245.714 183.752 245.234 186.2 244.274 188.44C243.346 190.68 242.05 192.632 240.386 194.296C238.722 195.96 236.77 197.256 234.53 198.184C232.29 199.112 229.874 199.576 227.282 199.576ZM227.282 194.392C229.138 194.392 230.834 194.056 232.37 193.384C233.938 192.712 235.298 191.784 236.45 190.6C237.602 189.384 238.498 187.976 239.138 186.376C239.778 184.744 240.098 182.984 240.098 181.096C240.098 179.208 239.778 177.464 239.138 175.864C238.498 174.264 237.602 172.856 236.45 171.64C235.298 170.424 233.938 169.48 232.37 168.808C230.834 168.136 229.138 167.8 227.282 167.8C225.426 167.8 223.714 168.136 222.146 168.808C220.61 169.48 219.266 170.424 218.114 171.64C216.962 172.856 216.066 174.264 215.426 175.864C214.818 177.464 214.514 179.208 214.514 181.096C214.514 182.984 214.818 184.744 215.426 186.376C216.066 187.976 216.962 189.384 218.114 190.6C219.266 191.784 220.626 192.712 222.194 193.384C223.762 194.056 225.458 194.392 227.282 194.392ZM270.741 199L260.901 163.24H266.901L274.869 194.2H273.381L281.637 163.24H287.541L295.797 194.2H294.261L302.277 163.24H308.229L298.437 199H292.053L283.749 168.52H285.429L277.077 199H270.741ZM353.427 199L343.587 163.24H349.587L357.555 194.2H356.067L364.323 163.24H370.227L378.483 194.2H376.947L384.963 163.24H390.915L381.123 199H374.739L366.435 168.52H368.115L359.763 199H353.427ZM408.09 199V163.24H431.658V168.28H413.754V178.552H430.698V183.592H413.754V193.96H431.658V199H408.09ZM477.901 199L468.061 163.24H474.061L482.029 194.2H480.541L488.797 163.24H494.701L502.957 194.2H501.421L509.437 163.24H515.389L505.597 199H499.213L490.909 168.52H492.589L484.237 199H477.901ZM549.002 199.576C546.41 199.576 543.994 199.112 541.754 198.184C539.546 197.256 537.594 195.96 535.898 194.296C534.234 192.632 532.922 190.68 531.962 188.44C531.034 186.2 530.57 183.752 530.57 181.096C530.57 178.44 531.034 175.992 531.962 173.752C532.922 171.48 534.234 169.528 535.898 167.896C537.562 166.232 539.514 164.952 541.754 164.056C543.994 163.128 546.41 162.664 549.002 162.664C551.626 162.664 554.042 163.128 556.25 164.056C558.49 164.952 560.442 166.232 562.106 167.896C563.802 169.56 565.114 171.512 566.042 173.752C566.97 175.992 567.434 178.44 567.434 181.096C567.434 183.752 566.954 186.2 565.994 188.44C565.066 190.68 563.77 192.632 562.106 194.296C560.442 195.96 558.49 197.256 556.25 198.184C554.01 199.112 551.594 199.576 549.002 199.576ZM549.002 194.392C550.858 194.392 552.554 194.056 554.09 193.384C555.658 192.712 557.018 191.784 558.17 190.6C559.322 189.384 560.218 187.976 560.858 186.376C561.498 184.744 561.818 182.984 561.818 181.096C561.818 179.208 561.498 177.464 560.858 175.864C560.218 174.264 559.322 172.856 558.17 171.64C557.018 170.424 555.658 169.48 554.09 168.808C552.554 168.136 550.858 167.8 549.002 167.8C547.146 167.8 545.434 168.136 543.866 168.808C542.33 169.48 540.986 170.424 539.834 171.64C538.682 172.856 537.786 174.264 537.146 175.864C536.538 177.464 536.234 179.208 536.234 181.096C536.234 182.984 536.538 184.744 537.146 186.376C537.786 187.976 538.682 189.384 539.834 190.6C540.986 191.784 542.346 192.712 543.914 193.384C545.482 194.056 547.178 194.392 549.002 194.392ZM586.727 199V163.24H599.735C602.135 163.24 604.247 163.688 606.071 164.584C607.895 165.448 609.319 166.728 610.343 168.424C611.399 170.088 611.927 172.088 611.927 174.424C611.927 176.888 611.303 179 610.055 180.76C608.839 182.52 607.191 183.8 605.111 184.6L613.367 199H606.935L598.151 183.4L601.847 185.56H592.391V199H586.727ZM592.391 180.52H599.831C601.143 180.52 602.279 180.264 603.239 179.752C604.199 179.24 604.935 178.536 605.447 177.64C605.991 176.712 606.263 175.624 606.263 174.376C606.263 173.128 605.991 172.056 605.447 171.16C604.935 170.232 604.199 169.528 603.239 169.048C602.279 168.536 601.143 168.28 599.831 168.28H592.391V180.52ZM631.093 199V163.24H636.757V182.632L635.269 182.056L651.445 163.24H658.501L644.197 179.992L644.485 175.96L659.077 199H652.405L641.941 182.632L636.757 188.68V199H631.093Z" fill="white"/>
</svg>
